<?xml version="1.0" encoding="UTF-8" standalone="no"?>
<svg
   xmlns:dc="http://purl.org/dc/elements/1.1/"
   xmlns:cc="http://creativecommons.org/ns#"
   xmlns:rdf="http://www.w3.org/1999/02/22-rdf-syntax-ns#"
   xmlns:svg="http://www.w3.org/2000/svg"
   xmlns="http://www.w3.org/2000/svg"
   xmlns:sodipodi="http://sodipodi.sourceforge.net/DTD/sodipodi-0.dtd"
   xmlns:inkscape="http://www.inkscape.org/namespaces/inkscape"
   viewBox="0 0 16 16"
   version="1.1"
   id="svg6"
   sodipodi:docname="Std_Cut.svg"
   inkscape:version="0.92.4 5da689c313, 2019-01-14">
  <metadata
     id="metadata10">
    <rdf:RDF>
      <cc:Work
         rdf:about="">
        <dc:format>image/svg+xml</dc:format>
        <dc:type
           rdf:resource="http://purl.org/dc/dcmitype/StillImage" />
        <dc:title />
      </cc:Work>
    </rdf:RDF>
  </metadata>
  <sodipodi:namedview
     pagecolor="#242424"
     bordercolor="#666666"
     borderopacity="1"
     objecttolerance="10"
     gridtolerance="10"
     guidetolerance="10"
     inkscape:pageopacity="0"
     inkscape:pageshadow="2"
     inkscape:window-width="640"
     inkscape:window-height="480"
     id="namedview8"
     showgrid="false"
     inkscape:zoom="41.25"
     inkscape:cx="8.1454542"
     inkscape:cy="5.0909091"
     inkscape:current-layer="svg6" />
  <defs
     id="defs3051">
    <style
       type="text/css"
       id="current-color-scheme">
      .ColorScheme-Text {
        color:#afafaf;
      }
      </style>
  </defs>
  <path
     style="color:#afafaf;fill:#afafaf;fill-opacity:1;stroke:none;stroke-width:1.20000005"
     d="m 4.4001953,0.8 c -0.5196,0.9 -0.7821,0.9 -0.2625,1.8 l 3.15,5.4 -1.8,2.6625 c -0.3264,-0.1656 -0.6975,-0.2625 -1.0875,-0.2625 -1.326,0 -2.4,1.074 -2.4,2.4 0,1.326 1.074,2.4 2.4,2.4 1.326,0 2.4,-1.074 2.4,-2.4 0,-0.486 -0.1641,-0.9345 -0.4125,-1.3125 -0.006,-0.0096 0.006,-0.0291 0,-0.0375 l 0.525,-0.75 c 0.9624,-0.03 1.0971,-0.7113 1.6875,-0.7125 0.0132,0 0.0243,-0.0012 0.0375,0 l 0.0375,0.075 0.9375,1.3875 v 0.0375 c -0.2472,0.378 -0.4148437,0.8265 -0.4148437,1.3125 0,1.326 1.0740004,2.4 2.4000004,2.4 1.326,0 2.4,-1.074 2.4,-2.4 0,-1.326 -1.074,-2.4 -2.4,-2.4 -0.39,0 -0.759957,0.0969 -1.085157,0.2625 L 8.7126953,8 c 0,0 3.1619997,-5.4096 3.1499997,-5.4 0.5196,-0.9 0.254757,-0.9 -0.264843,-1.8 L 7.9978516,6.95 Z M 7.9978516,8 h 0.00234 c 0.3312,0 0.6,0.2688 0.6,0.6 0,0.3048 -0.231,0.5616 -0.525,0.6 h -0.15 c -0.294,-0.0384 -0.5273437,-0.2952 -0.5273437,-0.6 0,-0.3312 0.2688,-0.6 0.6,-0.6 z m -3.6,3.6 c 0.6624,0 1.2,0.5376 1.2,1.2 0,0.6624 -0.5376,1.2 -1.2,1.2 -0.6624,0 -1.2,-0.5376 -1.2,-1.2 0,-0.6624 0.5376,-1.2 1.2,-1.2 z m 7.2000004,0 c 0.6624,0 1.2,0.5376 1.2,1.2 0,0.6624 -0.5376,1.2 -1.2,1.2 -0.6624,0 -1.2,-0.5376 -1.2,-1.2 0,-0.6624 0.5376,-1.2 1.2,-1.2 z"
     class="ColorScheme-Text"
     id="path4"
     inkscape:connector-curvature="0" />
  <circle
     style="color:#000000;clip-rule:nonzero;display:block;overflow:visible;visibility:visible;opacity:1;isolation:auto;mix-blend-mode:normal;color-interpolation:sRGB;color-interpolation-filters:linearRGB;solid-color:#000000;solid-opacity:1;vector-effect:none;fill:none;fill-opacity:1;fill-rule:nonzero;stroke:#007eff;stroke-width:1.5;stroke-linecap:butt;stroke-linejoin:miter;stroke-miterlimit:4;stroke-dasharray:none;stroke-dashoffset:0;stroke-opacity:0.99607843;marker:none;marker-start:none;marker-mid:none;marker-end:none;paint-order:fill markers stroke;color-rendering:auto;image-rendering:auto;shape-rendering:auto;text-rendering:auto;enable-background:accumulate"
     id="path834-6"
     cx="11.624242"
     cy="12.81212"
     r="1.6945686" />
  <circle
     style="color:#000000;clip-rule:nonzero;display:block;overflow:visible;visibility:visible;opacity:1;isolation:auto;mix-blend-mode:normal;color-interpolation:sRGB;color-interpolation-filters:linearRGB;solid-color:#000000;solid-opacity:1;vector-effect:none;fill:none;fill-opacity:1;fill-rule:nonzero;stroke:#007eff;stroke-width:1.5;stroke-linecap:butt;stroke-linejoin:miter;stroke-miterlimit:4;stroke-dasharray:none;stroke-dashoffset:0;stroke-opacity:0.99607843;marker:none;marker-start:none;marker-mid:none;marker-end:none;paint-order:fill markers stroke;color-rendering:auto;image-rendering:auto;shape-rendering:auto;text-rendering:auto;enable-background:accumulate"
     id="path834-6-5"
     cx="4.4121213"
     cy="12.8"
     r="1.6945686" />
</svg>
