<?xml version="1.0" encoding="UTF-8" standalone="no"?>
<svg
   xmlns:dc="http://purl.org/dc/elements/1.1/"
   xmlns:cc="http://creativecommons.org/ns#"
   xmlns:rdf="http://www.w3.org/1999/02/22-rdf-syntax-ns#"
   xmlns:svg="http://www.w3.org/2000/svg"
   xmlns="http://www.w3.org/2000/svg"
   xmlns:sodipodi="http://sodipodi.sourceforge.net/DTD/sodipodi-0.dtd"
   xmlns:inkscape="http://www.inkscape.org/namespaces/inkscape"
   viewBox="0 0 16 16"
   version="1.1"
   id="svg6"
   sodipodi:docname="Std_Refresh.svg"
   width="16"
   height="16"
   inkscape:version="0.92.4 5da689c313, 2019-01-14">
  <metadata
     id="metadata10">
    <rdf:RDF>
      <cc:Work
         rdf:about="">
        <dc:format>image/svg+xml</dc:format>
        <dc:type
           rdf:resource="http://purl.org/dc/dcmitype/StillImage" />
        <dc:title />
      </cc:Work>
    </rdf:RDF>
  </metadata>
  <sodipodi:namedview
     pagecolor="#ffffff"
     bordercolor="#666666"
     borderopacity="1"
     objecttolerance="10"
     gridtolerance="10"
     guidetolerance="10"
     inkscape:pageopacity="0"
     inkscape:pageshadow="2"
     inkscape:window-width="640"
     inkscape:window-height="480"
     id="namedview8"
     showgrid="false"
     inkscape:zoom="27.5"
     inkscape:cx="11.018182"
     inkscape:cy="6.9090908"
     inkscape:current-layer="svg6" />
  <defs
     id="defs3051">
    <style
       type="text/css"
       id="current-color-scheme">
      .ColorScheme-Text {
        color:#afafaf;
      }
      </style>
  </defs>
  <path
     style="color:#afafaf;fill:#007eff;fill-opacity:1;stroke:#007eff;stroke-width:1;stroke-miterlimit:4;stroke-dasharray:none;stroke-opacity:1"
     d="M 8.0727273,1 C 6.8112275,1 5.6320993,1.3350567 4.6120339,1.9143067 l 0.645996,0.645996 0.00171,-0.00171 2.431881,2.4301796 L 8.3102731,4.3701199 6.1381542,2.1997098 C 6.7468266,1.996115 7.3936503,1.875 8.0727273,1.875 c 3.3932237,0 6.1249997,2.73175 6.1249997,6.125 0,1.0171875 -0.250099,1.9721599 -0.685303,2.814697 l 0.645996,0.645996 C 14.737715,10.440618 15.072727,9.2614875 15.072727,8 c 0,-3.878 -3.12203,-7 -6.9999997,-7 z M 1.9870338,4.5393067 C 1.4077392,5.5593817 1.0727271,6.7385125 1.0727271,8 c 0,3.878 3.1220299,7 7.0000002,7 1.2614998,0 2.4406277,-0.335057 3.4606927,-0.914307 l -0.598144,-0.598144 0.0017,-0.0017 -2.4746105,-2.47461 -0.6186521,0.618653 2.1687016,2.168701 C 9.4022469,14.003306 8.7537083,14.125 8.0727273,14.125 4.6795035,14.125 1.9477272,11.39325 1.9477272,8 c 0,-1.0171875 0.2501004,-1.9721598 0.6853027,-2.8146973 z"
     class="ColorScheme-Text"
     id="path4"
     inkscape:connector-curvature="0" />
</svg>
