<svg
   height="48"
   id="svg3336"
   xmlns:cc="http://creativecommons.org/ns#"
   version="1.1"
   inkscape:version="0.91 r13725"
   xmlns:sodipodi="http://sodipodi.sourceforge.net/DTD/sodipodi-0.dtd"
   xmlns:xlink="http://www.w3.org/1999/xlink"
   xmlns:rdf="http://www.w3.org/1999/02/22-rdf-syntax-ns#"
   sodipodi:docname="FC_COIL_LAS_BASE.svg"
   viewBox="0 0 48 48"
   xmlns:dc="http://purl.org/dc/elements/1.1/"
   xmlns:inkscape="http://www.inkscape.org/namespaces/inkscape"
   width="48"
   xmlns="http://www.w3.org/2000/svg"
   xmlns:svg="http://www.w3.org/2000/svg">
   <title
      id="title12183">COIL Icon Pack LAS</title>
   <defs
      id="defs3338">
      <pattern
         height="6"
         x="0"
         id="EMFhbasepattern"
         patternUnits="userSpaceOnUse"
         width="6"
         y="0"></pattern>
      <pattern
         height="6"
         x="0"
         id="EMFhbasepattern-8"
         patternUnits="userSpaceOnUse"
         width="6"
         y="0"></pattern>
      <pattern
         height="6"
         x="0"
         id="EMFhbasepattern-3"
         patternUnits="userSpaceOnUse"
         width="6"
         y="0"></pattern>
      <pattern
         height="6"
         x="0"
         id="EMFhbasepattern-6"
         patternUnits="userSpaceOnUse"
         width="6"
         y="0"></pattern>
      <pattern
         height="6"
         x="0"
         id="EMFhbasepattern-5"
         patternUnits="userSpaceOnUse"
         width="6"
         y="0"></pattern>
      <pattern
         height="6"
         x="0"
         id="EMFhbasepattern-9"
         patternUnits="userSpaceOnUse"
         width="6"
         y="0"></pattern>
      <pattern
         height="6"
         x="0"
         id="EMFhbasepattern-2"
         patternUnits="userSpaceOnUse"
         width="6"
         y="0"></pattern>
      <pattern
         height="6"
         x="0"
         id="EMFhbasepattern-7"
         patternUnits="userSpaceOnUse"
         width="6"
         y="0"></pattern>
      <pattern
         height="6"
         x="0"
         id="EMFhbasepattern-31"
         patternUnits="userSpaceOnUse"
         width="6"
         y="0"></pattern>
      <pattern
         height="6"
         x="0"
         id="EMFhbasepattern-79"
         patternUnits="userSpaceOnUse"
         width="6"
         y="0"></pattern>
      <pattern
         height="6"
         x="0"
         id="EMFhbasepattern-87"
         patternUnits="userSpaceOnUse"
         width="6"
         y="0"></pattern>
      <pattern
         height="6"
         x="0"
         id="EMFhbasepattern-94"
         patternUnits="userSpaceOnUse"
         width="6"
         y="0"></pattern>
      <pattern
         height="6"
         x="0"
         id="EMFhbasepattern-53"
         patternUnits="userSpaceOnUse"
         width="6"
         y="0"></pattern>
      <pattern
         height="6"
         x="0"
         id="EMFhbasepattern-51"
         patternUnits="userSpaceOnUse"
         width="6"
         y="0"></pattern>
      <pattern
         height="6"
         x="0"
         id="EMFhbasepattern-95"
         patternUnits="userSpaceOnUse"
         width="6"
         y="0"></pattern>
      <pattern
         height="6"
         x="0"
         id="EMFhbasepattern-52"
         patternUnits="userSpaceOnUse"
         width="6"
         y="0"></pattern>
      <pattern
         height="6"
         x="0"
         id="EMFhbasepattern-1"
         patternUnits="userSpaceOnUse"
         width="6"
         y="0"></pattern>
      <pattern
         height="6"
         x="0"
         id="EMFhbasepattern-22"
         patternUnits="userSpaceOnUse"
         width="6"
         y="0"></pattern>
      <pattern
         height="6"
         x="0"
         id="EMFhbasepattern-19"
         patternUnits="userSpaceOnUse"
         width="6"
         y="0"></pattern>
      <pattern
         height="6"
         x="0"
         id="EMFhbasepattern-81"
         patternUnits="userSpaceOnUse"
         width="6"
         y="0"></pattern>
      <pattern
         height="6"
         x="0"
         id="EMFhbasepattern-535"
         patternUnits="userSpaceOnUse"
         width="6"
         y="0"></pattern>
      <pattern
         height="6"
         x="0"
         id="EMFhbasepattern-0"
         patternUnits="userSpaceOnUse"
         width="6"
         y="0"></pattern>
      <pattern
         height="6"
         x="0"
         id="EMFhbasepattern-37"
         patternUnits="userSpaceOnUse"
         width="6"
         y="0"></pattern>
      <pattern
         height="6"
         x="0"
         id="EMFhbasepattern-58"
         patternUnits="userSpaceOnUse"
         width="6"
         y="0"></pattern>
      <pattern
         height="6"
         x="0"
         id="EMFhbasepattern-73"
         patternUnits="userSpaceOnUse"
         width="6"
         y="0"></pattern>
      <pattern
         height="6"
         x="0"
         id="EMFhbasepattern-72"
         patternUnits="userSpaceOnUse"
         width="6"
         y="0"></pattern>
      <pattern
         height="6"
         x="0"
         id="EMFhbasepattern-63"
         patternUnits="userSpaceOnUse"
         width="6"
         y="0"></pattern>
      <pattern
         height="6"
         x="0"
         id="EMFhbasepattern-76"
         patternUnits="userSpaceOnUse"
         width="6"
         y="0"></pattern>
      <pattern
         height="6"
         x="0"
         id="EMFhbasepattern-510"
         patternUnits="userSpaceOnUse"
         width="6"
         y="0"></pattern>
      <pattern
         height="6"
         x="0"
         id="EMFhbasepattern-13"
         patternUnits="userSpaceOnUse"
         width="6"
         y="0"></pattern>
      <pattern
         height="6"
         x="0"
         id="EMFhbasepattern-00"
         patternUnits="userSpaceOnUse"
         width="6"
         y="0"></pattern>
      <pattern
         height="6"
         x="0"
         id="EMFhbasepattern-738"
         patternUnits="userSpaceOnUse"
         width="6"
         y="0"></pattern>
      <pattern
         height="6"
         x="0"
         id="EMFhbasepattern-26"
         patternUnits="userSpaceOnUse"
         width="6"
         y="0"></pattern>
      <pattern
         height="6"
         x="0"
         id="EMFhbasepattern-86"
         patternUnits="userSpaceOnUse"
         width="6"
         y="0"></pattern>
      <pattern
         height="6"
         x="0"
         id="EMFhbasepattern-959"
         patternUnits="userSpaceOnUse"
         width="6"
         y="0"></pattern>
      <pattern
         height="6"
         x="0"
         id="EMFhbasepattern-33"
         patternUnits="userSpaceOnUse"
         width="6"
         y="0"></pattern>
      <pattern
         height="6"
         x="0"
         id="EMFhbasepattern-5106"
         patternUnits="userSpaceOnUse"
         width="6"
         y="0"></pattern>
      <pattern
         height="6"
         x="0"
         id="EMFhbasepattern-869"
         patternUnits="userSpaceOnUse"
         width="6"
         y="0"></pattern>
      <pattern
         height="6"
         x="0"
         id="EMFhbasepattern-08"
         patternUnits="userSpaceOnUse"
         width="6"
         y="0"></pattern>
      <pattern
         height="6"
         x="0"
         id="EMFhbasepattern-54"
         patternUnits="userSpaceOnUse"
         width="6"
         y="0"></pattern>
      <pattern
         height="6"
         x="0"
         id="EMFhbasepattern-30"
         patternUnits="userSpaceOnUse"
         width="6"
         y="0"></pattern>
      <pattern
         height="6"
         x="0"
         id="EMFhbasepattern-34"
         patternUnits="userSpaceOnUse"
         width="6"
         y="0"></pattern>
      <pattern
         height="6"
         x="0"
         id="EMFhbasepattern-90"
         patternUnits="userSpaceOnUse"
         width="6"
         y="0"></pattern>
      <pattern
         height="6"
         x="0"
         id="EMFhbasepattern-4"
         patternUnits="userSpaceOnUse"
         width="6"
         y="0"></pattern>
      <pattern
         height="6"
         x="0"
         id="EMFhbasepattern-378"
         patternUnits="userSpaceOnUse"
         width="6"
         y="0"></pattern>
      <pattern
         height="6"
         x="0"
         id="EMFhbasepattern-78"
         patternUnits="userSpaceOnUse"
         width="6"
         y="0"></pattern>
      <pattern
         height="6"
         x="0"
         id="EMFhbasepattern-60"
         patternUnits="userSpaceOnUse"
         width="6"
         y="0"></pattern>
      <pattern
         height="6"
         x="0"
         id="EMFhbasepattern-64"
         patternUnits="userSpaceOnUse"
         width="6"
         y="0"></pattern>
      <pattern
         height="6"
         x="0"
         id="EMFhbasepattern-84"
         patternUnits="userSpaceOnUse"
         width="6"
         y="0"></pattern>
      <pattern
         height="6"
         x="0"
         id="EMFhbasepattern-01"
         patternUnits="userSpaceOnUse"
         width="6"
         y="0"></pattern>
      <pattern
         height="6"
         x="0"
         id="EMFhbasepattern-518"
         patternUnits="userSpaceOnUse"
         width="6"
         y="0"></pattern>
      <pattern
         height="6"
         x="0"
         id="EMFhbasepattern-725"
         patternUnits="userSpaceOnUse"
         width="6"
         y="0"></pattern>
      <pattern
         height="6"
         x="0"
         id="EMFhbasepattern-03"
         patternUnits="userSpaceOnUse"
         width="6"
         y="0"></pattern>
      <pattern
         height="6"
         x="0"
         id="EMFhbasepattern-541"
         patternUnits="userSpaceOnUse"
         width="6"
         y="0"></pattern>
      <pattern
         height="6"
         x="0"
         id="EMFhbasepattern-02"
         patternUnits="userSpaceOnUse"
         width="6"
         y="0"></pattern>
      <pattern
         height="6"
         x="0"
         id="EMFhbasepattern-56"
         patternUnits="userSpaceOnUse"
         width="6"
         y="0"></pattern>
      <pattern
         height="6"
         x="0"
         id="EMFhbasepattern-138"
         patternUnits="userSpaceOnUse"
         width="6"
         y="0"></pattern>
      <pattern
         height="6"
         x="0"
         id="EMFhbasepattern-07"
         patternUnits="userSpaceOnUse"
         width="6"
         y="0"></pattern>
      <pattern
         height="6"
         x="0"
         id="EMFhbasepattern-24"
         patternUnits="userSpaceOnUse"
         width="6"
         y="0"></pattern>
      <pattern
         height="6"
         x="0"
         id="EMFhbasepattern-315"
         patternUnits="userSpaceOnUse"
         width="6"
         y="0"></pattern>
      <pattern
         height="6"
         x="0"
         id="EMFhbasepattern-09"
         patternUnits="userSpaceOnUse"
         width="6"
         y="0"></pattern>
      <pattern
         height="6"
         x="0"
         id="EMFhbasepattern-222"
         patternUnits="userSpaceOnUse"
         width="6"
         y="0"></pattern>
      <pattern
         height="6"
         x="0"
         id="EMFhbasepattern-43"
         patternUnits="userSpaceOnUse"
         width="6"
         y="0"></pattern>
      <pattern
         height="6"
         x="0"
         id="EMFhbasepattern-531"
         patternUnits="userSpaceOnUse"
         width="6"
         y="0"></pattern>
      <pattern
         height="6"
         x="0"
         id="EMFhbasepattern-085"
         patternUnits="userSpaceOnUse"
         width="6"
         y="0"></pattern>
      <pattern
         height="6"
         x="0"
         id="EMFhbasepattern-46"
         patternUnits="userSpaceOnUse"
         width="6"
         y="0"></pattern>
      <pattern
         height="6"
         x="0"
         id="EMFhbasepattern-638"
         patternUnits="userSpaceOnUse"
         width="6"
         y="0"></pattern>
      <pattern
         height="6"
         x="0"
         id="EMFhbasepattern-762"
         patternUnits="userSpaceOnUse"
         width="6"
         y="0"></pattern>
      <pattern
         height="6"
         x="0"
         id="EMFhbasepattern-3159"
         patternUnits="userSpaceOnUse"
         width="6"
         y="0"></pattern>
      <pattern
         height="6"
         x="0"
         id="EMFhbasepattern-515"
         patternUnits="userSpaceOnUse"
         width="6"
         y="0"></pattern>
      <pattern
         height="6"
         x="0"
         id="EMFhbasepattern-48"
         patternUnits="userSpaceOnUse"
         width="6"
         y="0"></pattern>
      <pattern
         height="6"
         x="0"
         id="EMFhbasepattern-567"
         patternUnits="userSpaceOnUse"
         width="6"
         y="0"></pattern>
      <pattern
         height="6"
         x="0"
         id="EMFhbasepattern-18"
         patternUnits="userSpaceOnUse"
         width="6"
         y="0"></pattern>
      <pattern
         height="6"
         x="0"
         id="EMFhbasepattern-192"
         patternUnits="userSpaceOnUse"
         width="6"
         y="0"></pattern>
      <pattern
         height="6"
         x="0"
         id="EMFhbasepattern-001"
         patternUnits="userSpaceOnUse"
         width="6"
         y="0"></pattern></defs>
   <sodipodi:namedview
      inkscape:snap-grids="false"
      id="base"
      showguides="false"
      inkscape:zoom="2.0000001"
      inkscape:grid-bbox="true"
      inkscape:cx="827.95115"
      inkscape:window-height="1003"
      pagecolor="#f5f5f5"
      bordercolor="#666666"
      inkscape:pageopacity="1"
      inkscape:object-nodes="true"
      inkscape:snap-object-midpoints="true"
      inkscape:current-layer="layer3"
      inkscape:document-units="px"
      inkscape:object-paths="true"
      inkscape:window-y="-9"
      inkscape:snap-global="false"
      inkscape:window-maximized="1"
      inkscape:snap-smooth-nodes="true"
      inkscape:snap-bbox="true"
      inkscape:snap-intersection-paths="true"
      borderopacity="1.0"
      inkscape:pageshadow="2"
      inkscape:snap-center="false"
      inkscape:cy="-532.44327"
      inkscape:window-width="1920"
      inkscape:window-x="-9"
      inkscape:snap-to-guides="false"
      showgrid="true">
      <inkscape:grid
         empspacing="4"
         dotted="false"
         type="xygrid"
         id="grid3344"
         color="#3f3fff"
         opacity="0.09803922"
         spacingy="6"
         enabled="false"
         spacingx="6"
         empopacity="0.14901961"
         empcolor="#3f3fff"></inkscape:grid>
      <inkscape:grid
         empspacing="48"
         empopacity="0.19607843"
         type="xygrid"
         id="grid3346"
         spacingy="1"
         enabled="true"
         spacingx="1"
         visible="true"
         empcolor="#0e3ca4"></inkscape:grid></sodipodi:namedview>
   <metadata
      id="metadata3341">
      <rdf:RDF>
         <cc:Work
            rdf:about="">
            <dc:format>image/svg+xml</dc:format>
            <dc:type
               rdf:resource="http://purl.org/dc/dcmitype/StillImage"></dc:type>
            <dc:title>COIL Icon Pack LAS</dc:title>
            <dc:creator>
               <cc:Agent>
                  <dc:title>Paul Kotelevets (1D_Inc)</dc:title></cc:Agent></dc:creator>
            <dc:rights>
               <cc:Agent>
                  <dc:title></dc:title></cc:Agent></dc:rights>
            <cc:license
               rdf:resource="http://creativecommons.org/licenses/by-sa/3.0/"></cc:license>
            <dc:identifier>Light theme</dc:identifier>
            <dc:description>FreeCAD Icons Pack - Light A
8 colors
black 373e48ff /grey 939dacff /orange ff6600ff /red d40000ff
/blue 0066ffff /green 008066ff /violet d35fbcff </dc:description>
            <dc:contributor>
               <cc:Agent>
                  <dc:title>based on Blender 2.8 style by Andrzej Ambroz (jendrzych), Monoicon style</dc:title></cc:Agent></dc:contributor>
            <dc:date>2019</dc:date>
            <dc:relation>https://github.com/triplus/IconThemes</dc:relation>
            <dc:coverage></dc:coverage>
            <dc:source>https://forum.freecadweb.org/viewtopic.php?f=34&amp;=34687</dc:source>
            <dc:publisher>
               <cc:Agent>
                  <dc:title>FreeCAD demo</dc:title></cc:Agent></dc:publisher>
            <dc:subject>
               <rdf:Bag>
                  <rdf:li>FreeCAD</rdf:li>
                  <rdf:li>COIL</rdf:li>
                  <rdf:li>Icon</rdf:li>
                  <rdf:li>Pack</rdf:li>
                  <rdf:li>Theme</rdf:li></rdf:Bag></dc:subject></cc:Work>
         <cc:License
            rdf:about="http://creativecommons.org/licenses/by-sa/3.0/">
            <cc:permits
               rdf:resource="http://creativecommons.org/ns#Reproduction"></cc:permits>
            <cc:permits
               rdf:resource="http://creativecommons.org/ns#Distribution"></cc:permits>
            <cc:requires
               rdf:resource="http://creativecommons.org/ns#Notice"></cc:requires>
            <cc:requires
               rdf:resource="http://creativecommons.org/ns#Attribution"></cc:requires>
            <cc:permits
               rdf:resource="http://creativecommons.org/ns#DerivativeWorks"></cc:permits>
            <cc:requires
               rdf:resource="http://creativecommons.org/ns#ShareAlike"></cc:requires></cc:License></rdf:RDF></metadata>
   <title
      id="title9120">COIL Icon Pack LA v0.1</title>
   <defs
      id="defs9122">
      <pattern
         height="6"
         x="0"
         id="pattern9124"
         patternUnits="userSpaceOnUse"
         width="6"
         y="0"></pattern>
      <pattern
         height="6"
         x="0"
         id="pattern9126"
         patternUnits="userSpaceOnUse"
         width="6"
         y="0"></pattern>
      <pattern
         height="6"
         x="0"
         id="pattern9128"
         patternUnits="userSpaceOnUse"
         width="6"
         y="0"></pattern>
      <pattern
         height="6"
         x="0"
         id="pattern9130"
         patternUnits="userSpaceOnUse"
         width="6"
         y="0"></pattern>
      <pattern
         height="6"
         x="0"
         id="pattern9132"
         patternUnits="userSpaceOnUse"
         width="6"
         y="0"></pattern>
      <pattern
         height="6"
         x="0"
         id="pattern9134"
         patternUnits="userSpaceOnUse"
         width="6"
         y="0"></pattern>
      <pattern
         height="6"
         x="0"
         id="pattern9136"
         patternUnits="userSpaceOnUse"
         width="6"
         y="0"></pattern>
      <pattern
         height="6"
         x="0"
         id="pattern9138"
         patternUnits="userSpaceOnUse"
         width="6"
         y="0"></pattern>
      <pattern
         height="6"
         x="0"
         id="pattern9140"
         patternUnits="userSpaceOnUse"
         width="6"
         y="0"></pattern>
      <pattern
         height="6"
         x="0"
         id="pattern9142"
         patternUnits="userSpaceOnUse"
         width="6"
         y="0"></pattern>
      <pattern
         height="6"
         x="0"
         id="pattern9144"
         patternUnits="userSpaceOnUse"
         width="6"
         y="0"></pattern>
      <pattern
         height="6"
         x="0"
         id="pattern9146"
         patternUnits="userSpaceOnUse"
         width="6"
         y="0"></pattern>
      <pattern
         height="6"
         x="0"
         id="pattern9148"
         patternUnits="userSpaceOnUse"
         width="6"
         y="0"></pattern>
      <pattern
         height="6"
         x="0"
         id="pattern9150"
         patternUnits="userSpaceOnUse"
         width="6"
         y="0"></pattern>
      <pattern
         height="6"
         x="0"
         id="pattern9152"
         patternUnits="userSpaceOnUse"
         width="6"
         y="0"></pattern>
      <pattern
         height="6"
         x="0"
         id="pattern9154"
         patternUnits="userSpaceOnUse"
         width="6"
         y="0"></pattern>
      <pattern
         height="6"
         x="0"
         id="pattern9156"
         patternUnits="userSpaceOnUse"
         width="6"
         y="0"></pattern>
      <pattern
         height="6"
         x="0"
         id="pattern9158"
         patternUnits="userSpaceOnUse"
         width="6"
         y="0"></pattern>
      <pattern
         height="6"
         x="0"
         id="pattern9160"
         patternUnits="userSpaceOnUse"
         width="6"
         y="0"></pattern>
      <pattern
         height="6"
         x="0"
         id="pattern9162"
         patternUnits="userSpaceOnUse"
         width="6"
         y="0"></pattern>
      <pattern
         height="6"
         x="0"
         id="pattern9164"
         patternUnits="userSpaceOnUse"
         width="6"
         y="0"></pattern>
      <pattern
         height="6"
         x="0"
         id="pattern9166"
         patternUnits="userSpaceOnUse"
         width="6"
         y="0"></pattern>
      <pattern
         height="6"
         x="0"
         id="pattern9168"
         patternUnits="userSpaceOnUse"
         width="6"
         y="0"></pattern>
      <pattern
         height="6"
         x="0"
         id="pattern9170"
         patternUnits="userSpaceOnUse"
         width="6"
         y="0"></pattern>
      <pattern
         height="6"
         x="0"
         id="pattern9172"
         patternUnits="userSpaceOnUse"
         width="6"
         y="0"></pattern>
      <pattern
         height="6"
         x="0"
         id="pattern9174"
         patternUnits="userSpaceOnUse"
         width="6"
         y="0"></pattern>
      <pattern
         height="6"
         x="0"
         id="pattern9176"
         patternUnits="userSpaceOnUse"
         width="6"
         y="0"></pattern>
      <pattern
         height="6"
         x="0"
         id="pattern9178"
         patternUnits="userSpaceOnUse"
         width="6"
         y="0"></pattern>
      <pattern
         height="6"
         x="0"
         id="pattern9180"
         patternUnits="userSpaceOnUse"
         width="6"
         y="0"></pattern>
      <pattern
         height="6"
         x="0"
         id="pattern9182"
         patternUnits="userSpaceOnUse"
         width="6"
         y="0"></pattern>
      <pattern
         height="6"
         x="0"
         id="pattern9184"
         patternUnits="userSpaceOnUse"
         width="6"
         y="0"></pattern>
      <pattern
         height="6"
         x="0"
         id="pattern9186"
         patternUnits="userSpaceOnUse"
         width="6"
         y="0"></pattern>
      <pattern
         height="6"
         x="0"
         id="pattern9188"
         patternUnits="userSpaceOnUse"
         width="6"
         y="0"></pattern>
      <pattern
         height="6"
         x="0"
         id="pattern9190"
         patternUnits="userSpaceOnUse"
         width="6"
         y="0"></pattern>
      <pattern
         height="6"
         x="0"
         id="pattern9192"
         patternUnits="userSpaceOnUse"
         width="6"
         y="0"></pattern>
      <pattern
         height="6"
         x="0"
         id="pattern9194"
         patternUnits="userSpaceOnUse"
         width="6"
         y="0"></pattern>
      <pattern
         height="6"
         x="0"
         id="pattern9196"
         patternUnits="userSpaceOnUse"
         width="6"
         y="0"></pattern>
      <pattern
         height="6"
         x="0"
         id="pattern9198"
         patternUnits="userSpaceOnUse"
         width="6"
         y="0"></pattern>
      <pattern
         height="6"
         x="0"
         id="pattern9200"
         patternUnits="userSpaceOnUse"
         width="6"
         y="0"></pattern>
      <pattern
         height="6"
         x="0"
         id="pattern9202"
         patternUnits="userSpaceOnUse"
         width="6"
         y="0"></pattern>
      <pattern
         height="6"
         x="0"
         id="pattern9204"
         patternUnits="userSpaceOnUse"
         width="6"
         y="0"></pattern>
      <pattern
         height="6"
         x="0"
         id="pattern9206"
         patternUnits="userSpaceOnUse"
         width="6"
         y="0"></pattern>
      <pattern
         height="6"
         x="0"
         id="pattern9208"
         patternUnits="userSpaceOnUse"
         width="6"
         y="0"></pattern>
      <pattern
         height="6"
         x="0"
         id="pattern9210"
         patternUnits="userSpaceOnUse"
         width="6"
         y="0"></pattern>
      <pattern
         height="6"
         x="0"
         id="pattern9212"
         patternUnits="userSpaceOnUse"
         width="6"
         y="0"></pattern>
      <pattern
         height="6"
         x="0"
         id="pattern9214"
         patternUnits="userSpaceOnUse"
         width="6"
         y="0"></pattern>
      <pattern
         height="6"
         x="0"
         id="pattern9216"
         patternUnits="userSpaceOnUse"
         width="6"
         y="0"></pattern>
      <pattern
         height="6"
         x="0"
         id="pattern9218"
         patternUnits="userSpaceOnUse"
         width="6"
         y="0"></pattern>
      <pattern
         height="6"
         x="0"
         id="pattern9220"
         patternUnits="userSpaceOnUse"
         width="6"
         y="0"></pattern>
      <pattern
         height="6"
         x="0"
         id="pattern9222"
         patternUnits="userSpaceOnUse"
         width="6"
         y="0"></pattern>
      <pattern
         height="6"
         x="0"
         id="pattern9224"
         patternUnits="userSpaceOnUse"
         width="6"
         y="0"></pattern>
      <pattern
         height="6"
         x="0"
         id="pattern9226"
         patternUnits="userSpaceOnUse"
         width="6"
         y="0"></pattern>
      <pattern
         height="6"
         x="0"
         id="pattern9228"
         patternUnits="userSpaceOnUse"
         width="6"
         y="0"></pattern>
      <pattern
         height="6"
         x="0"
         id="pattern9230"
         patternUnits="userSpaceOnUse"
         width="6"
         y="0"></pattern>
      <pattern
         height="6"
         x="0"
         id="pattern9232"
         patternUnits="userSpaceOnUse"
         width="6"
         y="0"></pattern>
      <pattern
         height="6"
         x="0"
         id="pattern9234"
         patternUnits="userSpaceOnUse"
         width="6"
         y="0"></pattern>
      <pattern
         height="6"
         x="0"
         id="pattern9236"
         patternUnits="userSpaceOnUse"
         width="6"
         y="0"></pattern>
      <pattern
         height="6"
         x="0"
         id="pattern9238"
         patternUnits="userSpaceOnUse"
         width="6"
         y="0"></pattern>
      <pattern
         height="6"
         x="0"
         id="pattern9240"
         patternUnits="userSpaceOnUse"
         width="6"
         y="0"></pattern>
      <pattern
         height="6"
         x="0"
         id="pattern9242"
         patternUnits="userSpaceOnUse"
         width="6"
         y="0"></pattern>
      <pattern
         height="6"
         x="0"
         id="pattern9244"
         patternUnits="userSpaceOnUse"
         width="6"
         y="0"></pattern>
      <pattern
         height="6"
         x="0"
         id="pattern9246"
         patternUnits="userSpaceOnUse"
         width="6"
         y="0"></pattern>
      <pattern
         height="6"
         x="0"
         id="pattern9248"
         patternUnits="userSpaceOnUse"
         width="6"
         y="0"></pattern>
      <pattern
         height="6"
         x="0"
         id="pattern9250"
         patternUnits="userSpaceOnUse"
         width="6"
         y="0"></pattern>
      <pattern
         height="6"
         x="0"
         id="pattern9252"
         patternUnits="userSpaceOnUse"
         width="6"
         y="0"></pattern>
      <pattern
         height="6"
         x="0"
         id="pattern9254"
         patternUnits="userSpaceOnUse"
         width="6"
         y="0"></pattern>
      <pattern
         height="6"
         x="0"
         id="pattern9256"
         patternUnits="userSpaceOnUse"
         width="6"
         y="0"></pattern>
      <pattern
         height="6"
         x="0"
         id="pattern9258"
         patternUnits="userSpaceOnUse"
         width="6"
         y="0"></pattern>
      <pattern
         height="6"
         x="0"
         id="pattern9260"
         patternUnits="userSpaceOnUse"
         width="6"
         y="0"></pattern>
      <pattern
         height="6"
         x="0"
         id="pattern9262"
         patternUnits="userSpaceOnUse"
         width="6"
         y="0"></pattern>
      <pattern
         height="6"
         x="0"
         id="pattern9264"
         patternUnits="userSpaceOnUse"
         width="6"
         y="0"></pattern>
      <pattern
         height="6"
         x="0"
         id="pattern9266"
         patternUnits="userSpaceOnUse"
         width="6"
         y="0"></pattern>
      <pattern
         height="6"
         x="0"
         id="pattern9268"
         patternUnits="userSpaceOnUse"
         width="6"
         y="0"></pattern>
      <pattern
         height="6"
         x="0"
         id="pattern9270"
         patternUnits="userSpaceOnUse"
         width="6"
         y="0"></pattern>
      <pattern
         height="6"
         x="0"
         id="pattern9272"
         patternUnits="userSpaceOnUse"
         width="6"
         y="0"></pattern></defs>
   <sodipodi:namedview
      inkscape:snap-grids="true"
      id="namedview9274"
      showguides="false"
      inkscape:zoom="0.17677671"
      inkscape:grid-bbox="true"
      inkscape:cx="-301.21082"
      inkscape:window-height="1003"
      pagecolor="#ffffff"
      bordercolor="#666666"
      inkscape:pageopacity="0.0"
      inkscape:object-nodes="true"
      inkscape:snap-object-midpoints="true"
      inkscape:current-layer="layer3"
      inkscape:document-units="px"
      inkscape:object-paths="true"
      inkscape:window-y="-9"
      inkscape:snap-global="true"
      inkscape:window-maximized="1"
      inkscape:snap-smooth-nodes="true"
      inkscape:snap-bbox="true"
      inkscape:snap-intersection-paths="true"
      borderopacity="1.0"
      inkscape:pageshadow="2"
      inkscape:snap-center="false"
      inkscape:cy="-523.85547"
      inkscape:window-width="1920"
      inkscape:window-x="-9"
      inkscape:snap-to-guides="false"
      showgrid="true">
      <inkscape:grid
         empspacing="4"
         dotted="false"
         type="xygrid"
         id="grid9276"
         color="#3f3fff"
         opacity="0.09803922"
         spacingy="6"
         enabled="false"
         spacingx="6"
         empopacity="0.14901961"
         empcolor="#3f3fff"></inkscape:grid>
      <inkscape:grid
         empspacing="48"
         empopacity="0.19607843"
         type="xygrid"
         id="grid9278"
         spacingy="1"
         enabled="true"
         spacingx="1"
         visible="true"
         empcolor="#0e3ca4"></inkscape:grid></sodipodi:namedview>
   <metadata
      id="metadata9280">
      <rdf:RDF>
         <cc:Work
            rdf:about="">
            <dc:format>image/svg+xml</dc:format>
            <dc:type
               rdf:resource="http://purl.org/dc/dcmitype/StillImage"></dc:type>
            <dc:title>COIL Icon Pack LA v0.1</dc:title>
            <dc:creator>
               <cc:Agent>
                  <dc:title>Paul Kotelevets (1D_Inc)</dc:title></cc:Agent></dc:creator>
            <dc:rights>
               <cc:Agent>
                  <dc:title></dc:title></cc:Agent></dc:rights>
            <cc:license
               rdf:resource="http://creativecommons.org/licenses/by-sa/3.0/"></cc:license>
            <dc:identifier>Light theme</dc:identifier>
            <dc:description>FreeCAD Icons Pack - Light A
8 colors
black 373e48ff /grey 939dacff /orange fe8a01ff /red d40000ff
/blue 0066ffff /green 008066ff /violet d35fbcff </dc:description>
            <dc:contributor>
               <cc:Agent>
                  <dc:title>based on Blender 2.8 style by Andrzej Ambroz (jendrzych), Monoicon style</dc:title></cc:Agent></dc:contributor>
            <dc:date>2019</dc:date>
            <dc:relation>https://github.com/triplus/IconThemes</dc:relation>
            <dc:coverage></dc:coverage>
            <dc:source>https://forum.freecadweb.org/viewtopic.php?f=34t=34687</dc:source>
            <dc:publisher>
               <cc:Agent>
                  <dc:title>FreeCAD</dc:title></cc:Agent></dc:publisher>
            <dc:subject>
               <rdf:Bag>
                  <rdf:li>FreeCAD</rdf:li>
                  <rdf:li>COIL</rdf:li>
                  <rdf:li>Icon</rdf:li>
                  <rdf:li>Pack</rdf:li>
                  <rdf:li>Theme</rdf:li></rdf:Bag></dc:subject></cc:Work>
         <cc:License
            rdf:about="http://creativecommons.org/licenses/by-sa/3.0/">
            <cc:permits
               rdf:resource="http://creativecommons.org/ns#Reproduction"></cc:permits>
            <cc:permits
               rdf:resource="http://creativecommons.org/ns#Distribution"></cc:permits>
            <cc:requires
               rdf:resource="http://creativecommons.org/ns#Notice"></cc:requires>
            <cc:requires
               rdf:resource="http://creativecommons.org/ns#Attribution"></cc:requires>
            <cc:permits
               rdf:resource="http://creativecommons.org/ns#DerivativeWorks"></cc:permits>
            <cc:requires
               rdf:resource="http://creativecommons.org/ns#ShareAlike"></cc:requires></cc:License></rdf:RDF></metadata>
   <g
      id="icon"
      inkscape:label="icon"
      inkscape:groupmode="layer">
      <path
         inkscape:export-xdpi="78"
         id="path50864"
         inkscape:export-ydpi="78"
         style="color:#000000;clip-rule:nonzero;display:inline;overflow:visible;visibility:visible;opacity:1;isolation:auto;mix-blend-mode:normal;color-interpolation:sRGB;color-interpolation-filters:linearRGB;solid-color:#000000;solid-opacity:1;fill:none;fill-opacity:1;fill-rule:evenodd;stroke:#373e48;stroke-width:2.2;stroke-linecap:round;stroke-linejoin:round;stroke-miterlimit:4;stroke-dasharray:none;stroke-dashoffset:0;stroke-opacity:1;marker:none;paint-order:markers fill stroke;color-rendering:auto;image-rendering:auto;shape-rendering:auto;text-rendering:auto;enable-background:accumulate"
         d=" m 25.47440000000006,25.825589999999977 11.9356,0 m -11.1366,1.02614 13.539,1e-05 m -28.4609,-1e-05 5.0196,0 m -6.3164,0 1.2968,0 m -1.3338,0 0.037,0 m 20.7636,1.02618 8.6523,-1e-05 m -12.3984,0 1.5098,0 m -18.252,1e-05 7.1523,1e-05 m 13.8575,1.02616 7.791,0 m -29.2754,0 8.7871,0 m 13.2169,1.02615 6.9414,1e-05 m -29.4199,0 11.9316,0 m 11.0684,1.02615 6.3515,0 m -29.2147,-1e-05 12.0644,0 m 11.2558,1.02616 5.8262,0 m -28.7423,0 11.125,0 m 11.6915,1.02619 5.7793,0 m -28.1465,0 10.0802,-1e-05 m 12.1893,1.02616 5.0996,0 m -26.2813,0 9.3243,0 m 11.9473,1.02616 4.2519,0 m -24.4374,0 7.8983,1e-05 m 12.629,1.02617 3.3223,0 m -23.7287,0 7.3672,1e-05 m 13.379,1.02614 2.3964,0 m -23.1113,1e-05 5.4511,1e-05 m -5.4197,1.02613 5.3984,1e-05 m -5.3692,1.02618 4.7675,1e-05 m -4.7108,1.02614 3.7227,0 m -2.0606,1.02616 1.0684,0 m 6.9101,-36.94185 2.9317,-1e-05 m -0.7131,20.52326 12.1895,-1e-05 m -29.6523,0 0.9687,1e-05 m 9.4181,-19.4971 8.2011,1e-05 m -10.1172,1.02617 10.1074,-1e-05 m 7.5469,1.02615 1.3262,0 m -15.4746,0 6.5899,-1e-05 m 6.1562,1.02618 4.1719,0 m -16.3262,0 5.9864,0 m 10.3926,1.02617 1.1601,0 m -6.3105,-1e-05 3.3066,1e-05 m -14.3554,-1e-05 2.5098,0 m 13.1268,1.02617 2.7773,0 m -28.7128,0 0.9121,0 m 24.4629,1.02615 4.2382,1e-05 m -11.9354,-1e-05 1.4629,-1e-05 m -20.0568,2e-05 2.7188,0 m 23.0098,1.02617 5.5703,0 m -13.7267,1e-05 3.3478,-1e-05 m -16.7247,1e-05 4.5918,0 m -9.5664,-1e-05 4.3886,0 m 14.842,1.02615 13.5468,1e-05 m -33.4531,-1e-05 10.4824,0 m 9.8828,1.02618 13.6758,0 m -34.6621,-1e-05 10.2715,0 m 16.0584,1.02618 8.8497,-2e-05 m -14.4025,2e-05 1.664,0 m -22.9373,-1e-05 9.0663,1e-05 m 18.7677,1.02615 8.3008,0 m -15.8516,1e-05 1.6406,0 m -22.3807,-1e-05 8.3653,0 m 20.5292,1.02615 8.0625,0 m -37.3321,0 7.5821,0 m 22.289,1.02619 7.8008,0 m -37.9882,0 6.7403,0 m 14.5117,1.02614 16.9686,1e-05 m -38.4824,0 6.3379,0 m 25.9141,1.02615 3.6874,0 m -15.6777,0 10.3203,0 m -25.7793,1e-05 1.5527,0 m -6.5468,-1e-05 2.789,1e-05 m 30.5898,1.02619 3.752,-1e-05 m -16.998,1e-05 10.6035,-1e-05 m -30.8925,0 2.3691,1e-05 m 32.1015,1.02615 3.1446,-1e-05 m -17.6483,-1e-05 11.4159,0 m -31.2461,0 2.334,0 m -2.5469,1e-05 0.2129,-1e-05 m 19.5098,1.02615 12.2578,1e-05 m -30.4609,-1e-05 1.3848,0"
         inkscape:connector-curvature="0"></path>
      <path
         inkscape:export-xdpi="78"
         id="path51212"
         inkscape:export-ydpi="78"
         sodipodi:nodetypes="ccccccccccccccccccccccccccccccccccccccccccccccccccccccccccccccccccccccccccccc"
         style="color:#000000;clip-rule:nonzero;display:inline;overflow:visible;visibility:visible;opacity:1;isolation:auto;mix-blend-mode:normal;color-interpolation:sRGB;color-interpolation-filters:linearRGB;solid-color:#000000;solid-opacity:1;fill:none;fill-opacity:1;fill-rule:evenodd;stroke:#373e48;stroke-width:2.2;stroke-linecap:round;stroke-linejoin:round;stroke-miterlimit:4;stroke-dasharray:none;stroke-dashoffset:0;stroke-opacity:1;marker:none;paint-order:markers fill stroke;color-rendering:auto;image-rendering:auto;shape-rendering:auto;text-rendering:auto;enable-background:accumulate"
         d=" m 4.326799999999821,22.57177999999999 2.1692,1.70428 4.1101,3.0052 -1.37,2.96101 1.0606,2.69585 2.3423,2.20971 0.1506,5.03118 m 2.5333,-33.95681 4.2988,1.26007 c 0,0 0.4861,3.44715 0.5745,3.27037 0.088,-0.17677 3.3588,-1.98874 3.3588,-1.98874 l 2.2097,-0.30935 0.045,-4.16538 m -10.6271,37.30643 2.9365,-3.04482 0.044,-2.20971 1.7678,0 0.8839,-2.20971 -0.4862,-1.5026 1.3258,-1.19324 -0.2209,-1.45841 -2.8727,-1.10486 -2.8726,-2.65165 -3.044,-0.25168 -2.0914,1.42748 -3.338,-3.65159 -0.4096,-1.23652 -0.044,-1.54679 1.9887,-0.88389 2.3865,1.81196 -0.044,-2.65165 5.0382,-4.46361 1.8119,-0.53033 -0.6629,-2.82843 -4.8231,1.18916 -2.3298,-2.68557 m 23.8322,-3.01812 -2.9779,2.17622 0.08,0.97921 5.3238,-1.06483 -1.9774,3.6131 -4.6443,0 -1.4794,-1.7637 -2.1655,1.41421 1.5909,1.85616 -0.1767,1.37002 -1.1491,1.10485 1.6303,0.0876 1.4354,-1.4524 2.502,-0.40934 1.7465,1.25484 1.6911,2.87698 -3.7704,0.55245 -4.7975,-0.13388 -1.6748,0.93604 -1.1377,3.64508 3.0822,3.95632 1.3258,0.30936 0.442,-0.88388 1.6352,-0.0884 2.3548,4.64039 -0.2651,2.74004 1.1102,3.34434 1.6311,0 1.7097,-2.99079 1.5689,-2.07712 0.1989,-3.00521 1.1503,-3.46056 -2.4817,-0.48864 -1.4732,-2.76934 -1.0072,-2.1131 1.2194,-1.24485 3.057,3.35356 1.8641,0.66698 1.208,-1.45749 c 0,0 -1.9003,-1.72357 -1.7236,-1.76777 0.1768,-0.0442 2.6781,-0.83471 2.6781,-0.83471"
         inkscape:connector-curvature="0"></path>
      <path
         inkscape:export-xdpi="78"
         id="path51218"
         inkscape:export-ydpi="78"
         style="color:#000000;clip-rule:nonzero;display:inline;overflow:visible;visibility:visible;opacity:1;isolation:auto;mix-blend-mode:normal;color-interpolation:sRGB;color-interpolation-filters:linearRGB;solid-color:#000000;solid-opacity:1;fill:none;fill-opacity:1;fill-rule:evenodd;stroke:#373e48;stroke-width:2.2;stroke-linecap:round;stroke-linejoin:round;stroke-miterlimit:4;stroke-dasharray:none;stroke-dashoffset:0;stroke-opacity:1;marker:none;paint-order:markers fill stroke;color-rendering:auto;image-rendering:auto;shape-rendering:auto;text-rendering:auto;enable-background:accumulate"
         d=" m 43.73759999999993,23.942870000000028 a 19.729372,19.737685 0 0 1 -19.7294,19.73776 19.729372,19.737685 0 0 1 -19.7292,-19.73776 19.729372,19.737685 0 0 1 19.7292,-19.73617 19.729372,19.737685 0 0 1 19.7294,19.73617 z"
         inkscape:connector-curvature="0"></path></g></svg>